<svg width="873" height="222" viewBox="0 0 873 222" fill="none" xmlns="http://www.w3.org/2000/svg">
<path fill-rule="evenodd" clip-rule="evenodd" d="M148.296 133.765C150.887 132.411 151.891 129.213 150.537 126.621C149.184 124.029 145.986 123.026 143.394 124.379C140.802 125.733 139.799 128.931 141.152 131.523C142.506 134.115 145.704 135.118 148.296 133.765ZM152.703 125.49C154.682 129.278 153.215 133.952 149.427 135.93C145.639 137.909 140.965 136.442 138.986 132.654C137.008 128.866 138.475 124.192 142.263 122.214C146.051 120.235 150.725 121.702 152.703 125.49ZM107.643 162.808L151.304 140.004C157.39 136.825 159.742 129.311 156.555 123.229C153.374 117.159 145.878 114.812 139.803 117.985L96.1424 140.788C90.0619 143.964 87.7072 151.468 90.883 157.548C94.0587 163.629 101.562 165.983 107.643 162.808ZM157.638 122.662C154.144 115.995 145.91 113.417 139.238 116.902L95.5768 139.706C88.8983 143.194 86.3119 151.435 89.8001 158.114C93.2882 164.792 101.53 167.379 108.208 163.891L151.869 141.087C158.554 137.595 161.138 129.342 157.638 122.662Z" fill="#09BC8A"/>
<path d="M87.9639 48.4819C87.9639 40.9597 94.0525 34.8569 101.575 34.8394C109.122 34.8218 115.249 40.9349 115.249 48.4819V152.703C115.249 160.238 109.141 166.346 101.606 166.346C94.0718 166.346 87.9639 160.238 87.9639 152.703V48.4819Z" fill="white"/>
<path d="M108.326 48.2463C108.326 51.8449 105.409 54.7621 101.81 54.7621C98.2114 54.7621 95.2942 51.8449 95.2942 48.2463C95.2942 44.6477 98.2114 41.7305 101.81 41.7305C105.409 41.7305 108.326 44.6477 108.326 48.2463Z" fill="#09BC8A"/>
<path fill-rule="evenodd" clip-rule="evenodd" d="M62.9771 2.04681C64.2086 4.06187 63.5734 6.69373 61.5583 7.92523C45.4759 17.7539 32.1675 31.5237 22.8924 47.9316C13.6173 64.3395 8.68236 82.8427 8.55459 101.69C8.42681 120.538 13.1104 139.106 22.1622 155.638C31.2139 172.17 44.3345 186.119 60.2821 196.165C76.2297 206.211 94.477 212.021 113.297 213.046C132.117 214.072 150.888 210.277 167.832 202.023C184.776 193.769 199.334 181.327 210.128 165.876C220.922 150.425 227.594 132.475 229.514 113.725C229.755 111.376 231.854 109.666 234.204 109.907C236.553 110.147 238.262 112.247 238.022 114.596C235.954 134.794 228.766 154.129 217.139 170.774C205.512 187.418 189.83 200.82 171.577 209.711C153.325 218.603 133.105 222.69 112.832 221.586C92.5589 220.482 72.9028 214.223 55.7239 203.401C38.545 192.58 24.4115 177.554 14.6609 159.745C4.91031 141.937 -0.134901 121.935 0.00274273 101.632C0.140387 81.3296 5.45633 61.3978 15.4475 43.7231C25.4387 26.0485 39.7746 11.2155 57.0987 0.628039C59.1137 -0.603458 61.7456 0.0317478 62.9771 2.04681Z" fill="white"/>
<path d="M866.218 148.912C864.494 148.912 863.018 148.315 861.791 147.121C860.597 145.894 860 144.402 860 142.644C860 140.953 860.597 139.494 861.791 138.267C863.018 137.04 864.494 136.426 866.218 136.426C867.943 136.426 869.419 137.04 870.646 138.267C871.873 139.494 872.486 140.953 872.486 142.644C872.486 144.402 871.873 145.894 870.646 147.121C869.419 148.315 867.943 148.912 866.218 148.912Z" fill="white"/>
<path d="M828.131 147.619L828.081 97.8729H840.219L840.269 102.3C841.96 100.509 843.983 99.1 846.338 98.0719C848.692 97.0107 851.23 96.48 853.949 96.48C855.773 96.48 857.597 96.7454 859.421 97.276L854.645 109.513C853.385 109.016 852.125 108.767 850.865 108.767C848.908 108.767 847.117 109.248 845.492 110.21C843.9 111.138 842.623 112.415 841.662 114.04C840.733 115.632 840.269 117.406 840.269 119.363V147.619H828.131Z" fill="white"/>
<path d="M795.463 148.912C790.886 148.912 786.707 147.735 782.927 145.38C779.179 143.026 776.178 139.858 773.923 135.879C771.701 131.899 770.59 127.505 770.59 122.696C770.59 119.081 771.236 115.699 772.53 112.548C773.823 109.364 775.597 106.578 777.853 104.191C780.141 101.77 782.794 99.8793 785.812 98.5196C788.83 97.1599 792.047 96.48 795.463 96.48C799.343 96.48 802.891 97.3091 806.108 98.9673C809.358 100.592 812.111 102.831 814.366 105.683C816.621 108.535 818.263 111.785 819.291 115.433C820.319 119.081 820.551 122.895 819.987 126.875H783.623C784.087 128.732 784.85 130.407 785.911 131.899C786.973 133.358 788.316 134.536 789.941 135.431C791.566 136.293 793.406 136.741 795.463 136.774C797.585 136.807 799.509 136.31 801.233 135.282C802.991 134.221 804.45 132.795 805.611 131.004L817.997 133.889C815.974 138.3 812.957 141.915 808.944 144.734C804.931 147.519 800.437 148.912 795.463 148.912ZM783.225 117.771H807.7C807.335 115.781 806.556 113.991 805.362 112.399C804.201 110.774 802.759 109.48 801.034 108.519C799.31 107.557 797.452 107.076 795.463 107.076C793.473 107.076 791.632 107.557 789.941 108.519C788.249 109.447 786.807 110.724 785.613 112.349C784.452 113.941 783.656 115.748 783.225 117.771Z" fill="#09BC8A"/>
<path d="M768.932 147.619H754.953L743.611 128.069L736.647 136.376V147.619H724.509V73H736.647V117.523L753.112 97.873H768.981L751.919 118.219L768.932 147.619Z" fill="white"/>
<path d="M706.188 132.645L717.132 138.565C714.844 141.682 711.975 144.186 708.526 146.077C705.077 147.967 701.313 148.912 697.234 148.912C692.657 148.912 688.479 147.735 684.698 145.38C680.95 143.026 677.949 139.875 675.694 135.929C673.472 131.949 672.361 127.555 672.361 122.746C672.361 119.098 673.008 115.699 674.301 112.548C675.594 109.364 677.369 106.578 679.624 104.191C681.912 101.77 684.565 99.8793 687.583 98.5196C690.601 97.1599 693.818 96.48 697.234 96.48C701.313 96.48 705.077 97.4252 708.526 99.3156C711.975 101.206 714.844 103.743 717.132 106.927L706.188 112.797C705.027 111.47 703.651 110.442 702.059 109.712C700.5 108.983 698.892 108.618 697.234 108.618C694.846 108.618 692.69 109.281 690.767 110.608C688.843 111.901 687.318 113.626 686.19 115.781C685.063 117.904 684.499 120.225 684.499 122.746C684.499 125.233 685.063 127.555 686.19 129.71C687.318 131.833 688.843 133.541 690.767 134.834C692.69 136.128 694.846 136.774 697.234 136.774C698.958 136.774 700.6 136.409 702.159 135.68C703.717 134.917 705.06 133.906 706.188 132.645Z" fill="white"/>
<path d="M654.267 97.8729H666.405V147.619H654.267L653.719 141.45C652.36 143.672 650.552 145.48 648.297 146.873C646.075 148.232 643.439 148.912 640.388 148.912C636.706 148.912 633.257 148.216 630.04 146.823C626.823 145.43 623.988 143.507 621.534 141.052C619.113 138.598 617.206 135.763 615.813 132.546C614.453 129.329 613.773 125.88 613.773 122.199C613.773 118.65 614.42 115.317 615.714 112.2C617.04 109.082 618.881 106.346 621.235 103.992C623.59 101.637 626.309 99.7964 629.394 98.4699C632.478 97.1433 635.794 96.48 639.343 96.48C642.626 96.48 645.561 97.2096 648.148 98.6689C650.768 100.128 652.99 101.985 654.814 104.24L654.267 97.8729ZM640.089 137.222C642.676 137.222 644.964 136.575 646.954 135.282C648.944 133.988 650.503 132.247 651.63 130.059C652.758 127.837 653.321 125.399 653.321 122.746C653.321 120.06 652.758 117.622 651.63 115.433C650.503 113.211 648.927 111.454 646.904 110.16C644.914 108.867 642.643 108.22 640.089 108.22C637.535 108.22 635.197 108.883 633.075 110.21C630.986 111.503 629.311 113.244 628.051 115.433C626.823 117.622 626.21 120.06 626.21 122.746C626.21 125.432 626.84 127.87 628.1 130.059C629.361 132.247 631.035 133.988 633.125 135.282C635.247 136.575 637.569 137.222 640.089 137.222Z" fill="white"/>
<path d="M582.219 147.619L582.169 97.8729H594.307L594.357 102.3C596.048 100.509 598.071 99.1 600.426 98.0719C602.781 97.0107 605.318 96.48 608.037 96.48C609.861 96.48 611.685 96.7454 613.509 97.276L608.733 109.513C607.473 109.016 606.213 108.767 604.953 108.767C602.996 108.767 601.205 109.248 599.58 110.21C597.988 111.138 596.712 112.415 595.75 114.04C594.821 115.632 594.357 117.406 594.357 119.363V147.619H582.219Z" fill="white"/>
<path d="M578.741 77.9745V90.1126H557.45V147.619H545.312V90.1126H524.021V77.9745H578.741Z" fill="white"/>
<path d="M468.325 148.912C463.748 148.912 459.57 147.735 455.789 145.38C452.041 143.026 449.04 139.858 446.785 135.879C444.563 131.899 443.452 127.505 443.452 122.696C443.452 119.081 444.099 115.699 445.392 112.548C446.686 109.364 448.46 106.578 450.715 104.191C453.003 101.77 455.656 99.8793 458.674 98.5196C461.692 97.1599 464.909 96.48 468.325 96.48C472.205 96.48 475.754 97.3091 478.971 98.9673C482.221 100.592 484.973 102.831 487.228 105.683C489.484 108.535 491.125 111.785 492.153 115.433C493.181 119.081 493.413 122.895 492.85 126.875H456.485C456.95 128.732 457.713 130.407 458.774 131.899C459.835 133.358 461.178 134.536 462.803 135.431C464.428 136.293 466.269 136.741 468.325 136.774C470.447 136.807 472.371 136.31 474.096 135.282C475.853 134.221 477.312 132.795 478.473 131.004L490.86 133.889C488.837 138.3 485.819 141.915 481.806 144.734C477.793 147.519 473.3 148.912 468.325 148.912ZM456.087 117.771H480.562C480.198 115.781 479.418 113.991 478.224 112.399C477.064 110.774 475.621 109.48 473.897 108.519C472.172 107.557 470.315 107.076 468.325 107.076C466.335 107.076 464.495 107.557 462.803 108.519C461.112 109.447 459.669 110.724 458.475 112.349C457.315 113.941 456.519 115.748 456.087 117.771Z" fill="#09BC8A"/>
<path d="M358.993 147.619V97.8729H371.131V102.3C372.822 100.509 374.845 99.1 377.2 98.0719C379.555 97.0107 382.092 96.48 384.811 96.48C388.26 96.48 391.427 97.2926 394.313 98.9176C397.231 100.543 399.552 102.715 401.277 105.434C403.035 102.715 405.356 100.543 408.241 98.9176C411.127 97.2926 414.294 96.48 417.743 96.48C421.391 96.48 424.691 97.3755 427.642 99.1663C430.627 100.924 432.998 103.295 434.756 106.28C436.547 109.232 437.442 112.531 437.442 116.179V147.619H425.304V119.413C425.304 117.489 424.823 115.732 423.862 114.14C422.933 112.515 421.673 111.221 420.081 110.26C418.522 109.265 416.764 108.767 414.808 108.767C412.851 108.767 411.077 109.248 409.485 110.21C407.926 111.138 406.666 112.399 405.704 113.991C404.743 115.582 404.262 117.39 404.262 119.413V147.619H392.124V119.413C392.124 117.39 391.659 115.582 390.731 113.991C389.802 112.399 388.542 111.138 386.95 110.21C385.358 109.248 383.584 108.767 381.627 108.767C379.704 108.767 377.946 109.265 376.354 110.26C374.762 111.221 373.486 112.515 372.524 114.14C371.595 115.732 371.131 117.489 371.131 119.413V147.619H358.993Z" fill="white"/>
<path d="M335.286 97.8729H347.424V147.619H335.286V97.8729ZM341.454 91.4557C339.664 91.4557 338.155 90.8753 336.928 89.7146C335.7 88.5207 335.087 87.0283 335.087 85.2375C335.087 83.4798 335.7 82.004 336.928 80.8101C338.155 79.6162 339.647 79.0192 341.405 79.0192C343.162 79.0192 344.638 79.6162 345.832 80.8101C347.059 82.004 347.673 83.4798 347.673 85.2375C347.673 87.0283 347.076 88.5207 345.882 89.7146C344.688 90.8753 343.212 91.4557 341.454 91.4557Z" fill="white"/>
<path d="M329.72 77.9745V90.1126H308.429V147.619H296.291V90.1126H275V77.9745H329.72Z" fill="white"/>
</svg>
